<svg width="18" height="24" viewBox="0 0 18 24" fill="none" xmlns="http://www.w3.org/2000/svg">
<path d="M15 10H10V8L13 7.99C13.7939 7.99 14.5555 7.67531 15.1178 7.11486C15.6801 6.55441 15.9974 5.79392 16 5V3C15.9976 2.20508 15.6808 1.4434 15.1187 0.881302C14.5566 0.319207 13.7949 0.00237409 13 0L5 0C4.20508 0.00237409 3.4434 0.319207 2.8813 0.881302C2.31921 1.4434 2.00237 2.20508 2 3V5C2.00237 5.79492 2.31921 6.5566 2.8813 7.1187C3.4434 7.68079 4.20508 7.99763 5 8H8V10H3C2.20508 10.0024 1.4434 10.3192 0.881302 10.8813C0.319207 11.4434 0.00237409 12.2051 0 13V21C0.00237409 21.7949 0.319207 22.5566 0.881302 23.1187C1.4434 23.6808 2.20508 23.9976 3 24H15C15.7949 23.9976 16.5566 23.6808 17.1187 23.1187C17.6808 22.5566 17.9976 21.7949 18 21V13C17.9976 12.2051 17.6808 11.4434 17.1187 10.8813C16.5566 10.3192 15.7949 10.0024 15 10V10ZM5 6C4.73503 5.99921 4.48113 5.8936 4.29377 5.70623C4.1064 5.51887 4.00079 5.26497 4 5V3C4.00079 2.73503 4.1064 2.48113 4.29377 2.29377C4.48113 2.1064 4.73503 2.00079 5 2H12.99C13.256 2.00051 13.5111 2.10571 13.7001 2.29285C13.8891 2.48 13.9968 2.73403 14 3V5C13.9968 5.26597 13.8891 5.52 13.7001 5.70715C13.5111 5.89429 13.256 5.99949 12.99 6H5ZM9.435 20.072L9 20.5L8.565 20.068C7.02 18.541 6 17.534 6 16.298C5.98845 16.0712 6.02215 15.8443 6.09914 15.6306C6.17612 15.417 6.29486 15.2208 6.44842 15.0534C6.60198 14.8861 6.7873 14.751 6.9936 14.656C7.19989 14.5609 7.42302 14.5079 7.65 14.5C7.91192 14.5049 8.16936 14.5688 8.40312 14.6871C8.63687 14.8054 8.84091 14.9749 9 15.183C9.15909 14.9749 9.36313 14.8054 9.59688 14.6871C9.83064 14.5688 10.0881 14.5049 10.35 14.5C10.577 14.5079 10.8001 14.5609 11.0064 14.656C11.2127 14.751 11.398 14.8861 11.5516 15.0534C11.7051 15.2208 11.8239 15.417 11.9009 15.6306C11.9778 15.8443 12.0115 16.0712 12 16.298C12 17.534 10.98 18.541 9.435 20.072V20.072Z" fill="black"/>
</svg>
