<svg width="18" height="24" viewBox="0 0 18 24" fill="none" xmlns="http://www.w3.org/2000/svg">
<path d="M15 10H10V8L13 7.992C13.7944 7.99253 14.5566 7.67773 15.1191 7.11674C15.6816 6.55574 15.9984 5.79443 16 5V3C15.9989 2.20468 15.6825 1.44223 15.1202 0.879849C14.5578 0.317469 13.7953 0.00105832 13 0H5C4.20468 0.00105832 3.44223 0.317469 2.87985 0.879849C2.31747 1.44223 2.00106 2.20468 2 3V5C2.00106 5.79532 2.31747 6.55777 2.87985 7.12015C3.44223 7.68253 4.20468 7.99894 5 8H8V10H3C2.20476 10.0013 1.44246 10.3178 0.88014 10.8801C0.317817 11.4425 0.0013221 12.2048 0 13V21C0.00105832 21.7953 0.317469 22.5578 0.879848 23.1202C1.44223 23.6825 2.20468 23.9989 3 24H15C15.7953 23.9989 16.5578 23.6825 17.1202 23.1202C17.6825 22.5578 17.9989 21.7953 18 21V13C17.9987 12.2048 17.6822 11.4425 17.1199 10.8801C16.5575 10.3178 15.7952 10.0013 15 10V10ZM5 6C4.73486 5.99974 4.48066 5.89429 4.29319 5.70681C4.10571 5.51934 4.00026 5.26514 4 5V3C4.00026 2.73486 4.10571 2.48066 4.29319 2.29319C4.48066 2.10571 4.73486 2.00026 5 2L12.992 2.002C13.2578 2.00146 13.513 2.10612 13.7018 2.29311C13.8907 2.4801 13.9979 2.73423 14 3V5C13.9979 5.26595 13.8908 5.52029 13.702 5.7076C13.5131 5.89491 13.258 6.00001 12.992 6H5ZM16 21C15.9997 21.2651 15.8943 21.5193 15.7068 21.7068C15.5193 21.8943 15.2651 21.9997 15 22H3C2.73486 21.9997 2.48066 21.8943 2.29319 21.7068C2.10571 21.5193 2.00026 21.2651 2 21V13C2.00053 12.7349 2.10606 12.4809 2.29348 12.2935C2.4809 12.1061 2.73495 12.0005 3 12H15C15.2651 12.0003 15.5193 12.1057 15.7068 12.2932C15.8943 12.4807 15.9997 12.7349 16 13V21Z" fill="black"/>
</svg>
