<svg width="20" height="20" viewBox="0 0 20 20" fill="none" xmlns="http://www.w3.org/2000/svg">
<path d="M8.25 11C8.25 11.1642 8.21767 11.3267 8.15485 11.4784C8.09203 11.63 7.99996 11.7678 7.88388 11.8839C7.76781 12 7.63001 12.092 7.47835 12.1548C7.3267 12.2177 7.16415 12.25 7 12.25C6.66848 12.25 6.35054 12.1183 6.11612 11.8839C5.8817 11.6495 5.75 11.3315 5.75 11C5.75 10.6685 5.8817 10.3505 6.11612 10.1161C6.35054 9.8817 6.66848 9.75 7 9.75C7.16415 9.75 7.3267 9.78233 7.47835 9.84515C7.63001 9.90797 7.76781 10 7.88388 10.1161C7.99996 10.2322 8.09203 10.37 8.15485 10.5216C8.21767 10.6733 8.25 10.8358 8.25 11M13 9.75C12.6685 9.75 12.3505 9.8817 12.1161 10.1161C11.8817 10.3505 11.75 10.6685 11.75 11C11.75 11.3315 11.8817 11.6495 12.1161 11.8839C12.3505 12.1183 12.6685 12.25 13 12.25C13.3315 12.25 13.6495 12.1183 13.8839 11.8839C14.1183 11.6495 14.25 11.3315 14.25 11C14.25 10.6685 14.1183 10.3505 13.8839 10.1161C13.6495 9.8817 13.3315 9.75 13 9.75ZM20 10C20 12.6522 18.9464 15.1957 17.0711 17.0711C15.1957 18.9464 12.6522 20 10 20C8.68678 20 7.38642 19.7413 6.17317 19.2388C4.95991 18.7362 3.85752 17.9997 2.92893 17.0711C1.05357 15.1957 0 12.6522 0 10C0 7.34784 1.05357 4.8043 2.92893 2.92893C4.8043 1.05357 7.34784 0 10 0C11.3132 0 12.6136 0.258658 13.8268 0.761205C15.0401 1.26375 16.1425 2.00035 17.0711 2.92893C17.9997 3.85752 18.7362 4.95991 19.2388 6.17317C19.7413 7.38642 20 8.68678 20 10M8.66 2.12C10.06 4.44 12.6 6 15.5 6C15.96 6 16.41 5.95 16.84 5.88C15.44 3.56 12.9 2 10 2C9.54 2 9.09 2.05 8.66 2.12ZM2.42 7.47C4.14559 6.49175 5.44901 4.91056 6.08 3.03C4.35441 4.00825 3.05099 5.58945 2.42 7.47M18 10C18 9.22 17.88 8.47 17.67 7.76C16.97 7.91 16.25 8 15.5 8C14.0136 8.00032 12.5458 7.66928 11.2035 7.03097C9.8611 6.39266 8.67792 5.46312 7.74 4.31C7.21492 5.57924 6.43439 6.72691 5.44693 7.68169C4.45947 8.63646 3.28619 9.37793 2 9.86V10C2 14.41 5.59 18 10 18C14.41 18 18 14.41 18 10Z" fill="black"/>
</svg>
