<svg width="20" height="20" viewBox="0 0 20 20" fill="none" xmlns="http://www.w3.org/2000/svg">
<path d="M7 9.75C6.66848 9.75 6.35054 9.8817 6.11612 10.1161C5.8817 10.3505 5.75 10.6685 5.75 11C5.75 11.3315 5.8817 11.6495 6.11612 11.8839C6.35054 12.1183 6.66848 12.25 7 12.25C7.16415 12.25 7.3267 12.2177 7.47835 12.1548C7.63001 12.092 7.76781 12 7.88388 11.8839C7.99996 11.7678 8.09203 11.63 8.15485 11.4784C8.21767 11.3267 8.25 11.1642 8.25 11C8.25 10.8358 8.21767 10.6733 8.15485 10.5216C8.09203 10.37 7.99996 10.2322 7.88388 10.1161C7.76781 10 7.63001 9.90797 7.47835 9.84515C7.3267 9.78233 7.16415 9.75 7 9.75ZM13 9.75C12.6685 9.75 12.3505 9.8817 12.1161 10.1161C11.8817 10.3505 11.75 10.6685 11.75 11C11.75 11.3315 11.8817 11.6495 12.1161 11.8839C12.3505 12.1183 12.6685 12.25 13 12.25C13.3315 12.25 13.6495 12.1183 13.8839 11.8839C14.1183 11.6495 14.25 11.3315 14.25 11C14.25 10.6685 14.1183 10.3505 13.8839 10.1161C13.6495 9.8817 13.3315 9.75 13 9.75ZM10 0C8.68678 0 7.38642 0.258658 6.17317 0.761205C4.95991 1.26375 3.85752 2.00035 2.92893 2.92893C1.05357 4.8043 0 7.34784 0 10C0 12.6522 1.05357 15.1957 2.92893 17.0711C3.85752 17.9997 4.95991 18.7362 6.17317 19.2388C7.38642 19.7413 8.68678 20 10 20C12.6522 20 15.1957 18.9464 17.0711 17.0711C18.9464 15.1957 20 12.6522 20 10C20 8.68678 19.7413 7.38642 19.2388 6.17317C18.7362 4.95991 17.9997 3.85752 17.0711 2.92893C16.1425 2.00035 15.0401 1.26375 13.8268 0.761205C12.6136 0.258658 11.3132 0 10 0M10 18C5.59 18 2 14.41 2 10C2 9.71 2 9.42 2.05 9.14C4.41 8.09 6.28 6.16 7.26 3.77C8.40326 5.39238 10.0046 6.63679 11.859 7.34401C13.7135 8.05124 15.7367 8.18911 17.67 7.74C17.88 8.45 18 9.21 18 10C18 14.41 14.41 18 10 18Z" fill="black"/>
</svg>
